<svg width="74" height="78" viewBox="0 0 74 78" fill="none" xmlns="http://www.w3.org/2000/svg">
<path d="M22.3147 13.5635C21.6899 13.5635 21.1832 14.1084 21.1832 14.7808C21.1832 16.2575 20.0666 17.459 18.694 17.459C17.3215 17.459 16.2048 16.2575 16.2048 14.7808C16.2048 13.3041 17.3215 12.1027 18.694 12.1027C19.3188 12.1027 19.8255 11.5577 19.8255 10.8853C19.8255 10.2129 19.319 9.66797 18.694 9.66797C16.0737 9.66797 13.942 11.9616 13.942 14.7807C13.942 17.5997 16.0739 19.8934 18.694 19.8934C21.3142 19.8934 23.446 17.5997 23.446 14.7807C23.4462 14.1084 22.9395 13.5635 22.3147 13.5635Z" fill="white"/>
<path d="M22.3147 27.8465C21.6899 27.8465 21.1832 28.3915 21.1832 29.0639C21.1832 30.5406 20.0666 31.742 18.694 31.742C17.3215 31.742 16.2048 30.5406 16.2048 29.0639C16.2048 27.5872 17.3215 26.3858 18.694 26.3858C19.3188 26.3858 19.8255 25.8408 19.8255 25.1684C19.8255 24.496 19.319 23.951 18.694 23.951C16.0737 23.951 13.942 26.2447 13.942 29.0638C13.942 31.8828 16.0739 34.1765 18.694 34.1765C21.3142 34.1765 23.446 31.8828 23.446 29.0638C23.4462 28.3917 22.9395 27.8465 22.3147 27.8465Z" fill="white"/>
<path d="M40.6865 31.3079H32.2384C31.6136 31.3079 31.1069 31.8529 31.1069 32.5253C31.1069 33.1976 31.6135 33.7426 32.2384 33.7426H40.6865C41.3113 33.7426 41.818 33.1976 41.818 32.5253C41.818 31.8529 41.3115 31.3079 40.6865 31.3079Z" fill="white"/>
<path d="M40.6865 26.1139H32.2384C31.6136 26.1139 31.1069 26.6589 31.1069 27.3313C31.1069 28.0037 31.6135 28.5486 32.2384 28.5486H40.6865C41.3113 28.5486 41.818 28.0037 41.818 27.3313C41.818 26.6589 41.3115 26.1139 40.6865 26.1139Z" fill="white"/>
<path d="M38.2728 45.5909H32.2384C31.6136 45.5909 31.1069 46.1359 31.1069 46.8083C31.1069 47.4807 31.6135 48.0256 32.2384 48.0256H38.2728C38.8976 48.0256 39.4043 47.4807 39.4043 46.8083C39.4043 46.1359 38.8976 45.5909 38.2728 45.5909Z" fill="white"/>
<path d="M40.6865 40.3972H32.2384C31.6136 40.3972 31.1069 40.9421 31.1069 41.6145C31.1069 42.2869 31.6135 42.8318 32.2384 42.8318H40.6865C41.3113 42.8318 41.818 42.2869 41.818 41.6145C41.818 40.9421 41.3115 40.3972 40.6865 40.3972Z" fill="white"/>
<path d="M51.5483 17.0247H32.2384C31.6136 17.0247 31.1069 17.5696 31.1069 18.242C31.1069 18.9144 31.6135 19.4594 32.2384 19.4594H51.5482C52.173 19.4594 52.6797 18.9144 52.6797 18.242C52.6797 17.5696 52.1732 17.0247 51.5483 17.0247Z" fill="white"/>
<path d="M46.7208 11.8307H32.2384C31.6136 11.8307 31.1069 12.3757 31.1069 13.0481C31.1069 13.7205 31.6135 14.2655 32.2384 14.2655H46.7208C47.3456 14.2655 47.8523 13.7205 47.8523 13.0481C47.8523 12.3757 47.3458 11.8307 46.7208 11.8307Z" fill="white"/>
<path d="M22.3147 42.1297C21.6899 42.1297 21.1832 42.6747 21.1832 43.3471C21.1832 44.8238 20.0666 46.0252 18.694 46.0252C17.3215 46.0252 16.2048 44.8238 16.2048 43.3471C16.2048 41.8704 17.3215 40.6689 18.694 40.6689C19.3188 40.6689 19.8255 40.1239 19.8255 39.4516C19.8255 38.7792 19.319 38.2342 18.694 38.2342C16.0737 38.2342 13.942 40.5279 13.942 43.3469C13.942 46.166 16.0739 48.4597 18.694 48.4597C21.3142 48.4597 23.446 46.166 23.446 43.3469C23.4462 42.6747 22.9395 42.1297 22.3147 42.1297Z" fill="white"/>
<path d="M58.487 0H4.65125C2.08667 0 0 1.71101 0 3.81425V58.3499C0 60.4531 2.08648 62.1641 4.65125 62.1641H31.5692C32.389 62.1641 33.0537 61.6191 33.0537 60.9468C33.0537 60.2745 32.3891 59.7294 31.5692 59.7294H4.65125C3.72356 59.7294 2.96881 59.1105 2.96881 58.3497V3.81425C2.96881 3.0535 3.72356 2.43457 4.65125 2.43457H58.487C59.4147 2.43457 60.1694 3.0535 60.1694 3.81425V44.067C60.1694 44.7392 60.834 45.2843 61.6539 45.2843C62.4737 45.2843 63.1384 44.7393 63.1384 44.067V3.81425C63.1382 1.71101 61.0518 0 58.487 0Z" fill="white"/>
<path d="M70.2755 49.3646C69.2239 49.2518 68.1728 49.5725 67.341 50.252C66.6783 49.0558 65.5484 48.2071 64.2411 48.0662C63.1892 47.9535 62.1383 48.2742 61.3066 48.9536C60.644 47.7573 59.5141 46.9086 58.2067 46.7677C57.4037 46.6815 56.6017 46.8479 55.897 47.2338V31.7314C55.897 30.4727 55.3994 29.2661 54.5313 28.4211C53.664 27.5768 52.4953 27.1647 51.3246 27.2907C49.2359 27.5158 47.5999 29.5476 47.5999 31.9166V47.4582L44.2739 51.0366C42.5064 52.9382 41.793 55.6362 42.3656 58.2541L44.8906 69.8001C45.9137 74.4786 49.7482 77.7461 54.2154 77.7461H64.4205C69.7026 77.7461 74 73.1226 74 67.4395V53.9908C74.0001 51.6215 72.3641 49.5897 70.2755 49.3646ZM71.7372 67.4392C71.7372 71.7797 68.455 75.3111 64.4206 75.3111H54.2156C50.8036 75.3111 47.8748 72.8155 47.0933 69.242L44.5683 57.696C44.1765 55.905 44.6647 54.0588 45.8739 52.7578L47.5999 50.9009V55.1037C47.5999 55.7759 48.1064 56.3211 48.7313 56.3211C49.3563 56.3211 49.8628 55.7761 49.8628 55.1037V31.9165C49.8628 30.7829 50.6039 29.8151 51.5502 29.7133C52.0937 29.6545 52.6135 29.8371 53.0132 30.2264C53.408 30.6107 53.6344 31.1594 53.6344 31.7315V53.1562C53.6344 53.8285 54.1409 54.3736 54.7659 54.3736C55.3908 54.3736 55.8973 53.8286 55.8973 53.1562V51.2085C55.8973 50.6363 56.1236 50.0877 56.5185 49.7034C56.9184 49.3141 57.438 49.1314 57.9815 49.1903C58.9276 49.2922 59.6689 50.2601 59.6689 51.3936V54.4544C59.6689 55.1266 60.1754 55.6718 60.8004 55.6718C61.4252 55.6718 61.9318 55.1268 61.9318 54.4544V52.5066C61.9318 51.9345 62.1581 51.3859 62.553 51.0015C62.9529 50.6122 63.4726 50.4297 64.016 50.4884C64.9621 50.5903 65.7034 51.5582 65.7034 52.6917V55.7527C65.7034 56.4249 66.2099 56.97 66.8349 56.97C67.4597 56.97 67.9663 56.4251 67.9663 55.7527V53.8049C67.9663 53.2328 68.1926 52.6842 68.5875 52.2998C68.9875 51.9107 69.5067 51.7278 70.0505 51.7869C70.9967 51.8886 71.7379 52.8565 71.7379 53.99L71.7372 67.4392Z" fill="white"/>
</svg>
